<?xml version="1.0" encoding="UTF-8"?>
<svg id="Layer_1" data-name="Layer 1" xmlns="http://www.w3.org/2000/svg" viewBox="0 0 480 509.2">
  <defs>
    <style>
      .cls-1 {
        stroke-width: 0px;
      }

      .cls-2 {
        fill: #fff;
        stroke: #000;
        stroke-miterlimit: 10;
        stroke-width: 4px;
      }
    </style>
  </defs>
  <path class="cls-1" d="m240,0c4.6,0,9.2,1,13.4,2.9l188.3,79.9c22,9.3,38.4,31,38.3,57.2-.5,99.2-41.3,280.7-213.6,363.2-16.7,8-36.1,8-52.8,0C41.3,420.7.5,239.2,0,140c-.1-26.2,16.3-47.9,38.3-57.2L226.7,2.9c4.1-1.9,8.7-2.9,13.3-2.9Zm0,66.8v378c138-66.8,175.1-214.7,176-303.4l-176-74.6h0Z"/>
  <path class="cls-2" d="m293.82,381.24c2.66-7.54,6.99-14.63,13.08-20.69,21.62-21.62,56.66-21.62,78.28,0l5.91,5.95h-11.86c-6.12,0-11.07,4.95-11.07,11.07s4.95,11.07,11.07,11.07h38.71c6.12,0,11.07-4.95,11.07-11.07v-38.74c0-6.12-4.95-11.07-11.07-11.07s-11.07,4.95-11.07,11.07v12.18l-6.05-6.09c-30.27-30.27-79.32-30.27-109.58,0-8.44,8.44-14.53,18.37-18.26,28.99-2.04,5.78,1,12.07,6.75,14.11,5.74,2.04,12.07-1,14.11-6.75v-.03Zm-22.86,29.99c-1.73.52-3.39,1.45-4.74,2.84-1.38,1.38-2.32,3.04-2.8,4.84-.1.42-.21.86-.28,1.31-.1.59-.14,1.18-.14,1.76v38.6c0,6.12,4.95,11.07,11.07,11.07s11.07-4.95,11.07-11.07v-12.14l6.09,6.05h0c30.27,30.23,79.32,30.23,109.55,0,8.44-8.44,14.56-18.37,18.3-28.95,2.04-5.78-1-12.07-6.75-14.11-5.74-2.04-12.07,1-14.11,6.75-2.66,7.54-6.99,14.63-13.08,20.69-21.62,21.62-56.66,21.62-78.28,0l-.03-.03-5.91-5.91h11.9c6.12,0,11.07-4.95,11.07-11.07s-4.95-11.07-11.07-11.07h-38.6c-.55,0-1.11.03-1.66.1s-1.07.17-1.59.35Z"/>
</svg>